/* XPM */
static char *_22c62cc39494b0efa47da91f160a210grJyIIQSCa09q8VJ[] = {
/* columns rows colors chars-per-pixel */
"32 32 125 2 ",
"   c None",
".  c #60362D",
"X  c #60362E",
"o  c #60372E",
"O  c #61372E",
"+  c #63372E",
"@  c #64382F",
"#  c #64392F",
"$  c #724034",
"%  c #734134",
"&  c #734235",
"*  c #7D4537",
"=  c #704A32",
"-  c #82472D",
";  c #86462C",
":  c #86472C",
">  c #814839",
",  c #814939",
"<  c #824939",
"1  c #834939",
"2  c #834C3B",
"3  c #84503C",
"4  c #91503E",
"5  c #C5613D",
"6  c #C5623D",
"7  c #E9713E",
"8  c #895B41",
"9  c #895C41",
"0  c #8A5C41",
"q  c #895D42",
"w  c #8A5D42",
"e  c #8A5E42",
"r  c #8D5F43",
"t  c #965340",
"y  c #975340",
"u  c #975440",
"i  c #975742",
"p  c #985842",
"a  c #995A43",
"s  c #985B43",
"d  c #995B43",
"f  c #985B44",
"g  c #985C44",
"h  c #995C44",
"j  c #9A5C44",
"k  c #9A5D44",
"l  c #995E45",
"z  c #9A5E44",
"x  c #9A5E45",
"c  c #9A5F45",
"v  c #8E6244",
"b  c #9A6045",
"n  c #9B6045",
"m  c #9B6246",
"M  c #9C6146",
"N  c #9D6146",
"B  c #9C6246",
"V  c #9D6346",
"C  c #9C6347",
"Z  c #9D6447",
"A  c #9D6547",
"S  c #9E6547",
"D  c #9D6548",
"F  c #9D6648",
"G  c #9D6749",
"H  c #9E6748",
"J  c #9F6748",
"K  c #9D6849",
"L  c #9E6849",
"P  c #9F6949",
"I  c #9F6A49",
"U  c #9F6A4A",
"Y  c #9F6B4A",
"T  c #9F6C4A",
"R  c #9F6D4B",
"E  c #A06C4A",
"W  c #A06E4B",
"Q  c #BC6E45",
"!  c #A0704C",
"~  c #A1704C",
"^  c #A1714C",
"/  c #A2714C",
"(  c #A2724D",
")  c #A3724D",
"_  c #A2734D",
"`  c #A3734D",
"'  c #A3744E",
"]  c #A2754E",
"[  c #A3754E",
"{  c #A3764E",
"}  c #A4744D",
"|  c #A4754E",
" . c #A4764F",
".. c #A4774F",
"X. c #A5774F",
"o. c #AD7049",
"O. c #AE724A",
"+. c #AF744B",
"@. c #AF754B",
"#. c #D57242",
"$. c #DA7141",
"%. c #DA7241",
"&. c #E57642",
"*. c #E97741",
"=. c #EC7942",
"-. c #EE7D44",
";. c #EE7F45",
":. c #F08247",
">. c #F48146",
",. c #F08448",
"<. c #F18448",
"1. c #F38448",
"2. c #F18649",
"3. c #F28749",
"4. c #F58648",
"5. c #F68749",
"6. c #F2884A",
"7. c #F2894A",
"8. c #F38A4A",
"9. c #F38A4B",
"0. c #F68849",
"q. c #F48A4B",
"w. c #F48B4B",
"e. c #F38C4C",
"r. c #F38D4C",
/* pixels */
"                                                                ",
"; ; ; ; ; ; ; ; ; ; ; ; ; ; ; - = : ; ; ; ; ; ; ; ; ; ; ; ; ; ; ",
"0.5.5.5.5.5.5.5.5.5.0.0.5.5.5.:.&.>.5.5.5.5.5.5.5.5.5.5.5.5.5.5.",
";.2.2.9.r.r.r.r.r.r.r.r.r.r.r.9.7 =.9.r.r.r.r.r.r.r.r.r.r.r.r.r.",
"-.<.:.9.9.9.9.9.9.9.9.9.9.9.9.9.*.0.0.r.9.9.9.9.9.9.9.9.9.9.9.9.",
"$.$.$.$.$.$.$.$.$.$.$.$.$.$.$.#.Q $.$.$.$.$.$.$.$.$.$.$.$.$.$.$.",
"| | | | | | | | | | | | | S D N n [ [ | [ [ | | | | | | | | | | ",
"[ [ [ [ [ [ [ [ [ [ [ [ | E I D l [ [ [ [ [ [ [ [ [ [ [ [ [ [ [ ",
"! [ [ [ ' ' ' [ [ [ [ [ [ [ [ D n ..' ' ' ..' ' [ [ [ [ [ [ W E ",
"I [ [ [ ' ' ' ..[ [ [ [ X.X.[ / n ' ' ' ' ' ' ' [ [ [ [ [ [ W C ",
"N N / | X.X.X.X.X.X.........../ n ..' X.....X.X...X.X.X.X.| X.E ",
"0 e e e w w w 0 e e e e w w w e 3 e e e e v w w e e e e e e e 0 ",
". . X X + > > > > > > > > > * > * > > > * , , , > > * + . . X X ",
". . X + 1 4 y y u y u u u u u y u u u u u u u u u u u > # . X X ",
"% # # 1 y y y y y y y y y u y y y u u u y t y y y y y y 1 + X & ",
"t # 2 E x E E E I R f n n R I R U I R C n g U I R I E N C 0 & 4 ",
"> e I D K ..[ [ [ [ l G K ..{ [ ' ....I D D [ [ { { ..I I ..v * ",
"v [ [ K I [ [ [ [ [ T I I { [ [ ' ' [ K I I [ [ [ [ [ D G [ ' v ",
"' [ [ I K [ [ [ [ [ ' I K [ [ [ [ [ { I K ! [ [ [ [ { I I { ' ..",
"[ [ [ K I [ [ [ [ [ [ K I [ [ [ [ [ [ K I [ [ [ [ [ { I I ..' ' ",
"[ [ { I I [ [ [ [ [ [ I I [ [ [ [ [ [ K I [ [ [ [ [ [ G I [ [ [ ",
"[ [ [ I K [ [ [ [ [ [ I K [ [ [ [ [ [ I K [ [ [ [ [ [ I G [ [ [ ",
"[ [ [ I I [ [ [ [ [ [ K I [ [ [ [ [ [ K I [ [ [ [ [ [ K I [ [ [ ",
"[ [ [ I K [ [ [ [ [ [ I K { [ [ [ [ { I G [ [ [ [ [ [ I K [ [ [ ",
"[ [ [ D I [ [ [ [ [ { I G [ [ [ [ [ ' D I { [ [ [ [ [ K I [ [ [ ",
"[ [ I I I [ [ [ [ [ { I I [ [ [ [ [ T I I [ [ [ [ [ [ I K [ [ [ ",
"[ [ n G I ..[ [ [ { ' I K ' ..[ [ / n K G [ [ [ [ { ..K K [ { { ",
"K G f g b K K K K K K n n K K K n l g g n K K G K K K n g g K K ",
"6 6 6 6 6 6 6 5 6 6 6 6 6 6 6 6 6 6 6 6 6 6 6 6 6 6 6 6 6 6 6 6 ",
"O.O.@.@.@.+.+.+.@.O.O.O.@.O.@.@.@.@.@.@.@.@.O.@.+.@.O.@.@.@.+.+.",
"[ [ [ [ [ [ ! [ T n T [ [ [ [ [ [ [ ' ' [ [ [ [ [ [ [ [ [ | R R ",
"l l k k l l l l p p k l l g k k l l l l k k k k k l l l l l p f "
};
