/* XPM */
static char * Exit_xpm[] = {
"32 32 420 2",
"  	c None",
". 	c #815733",
"+ 	c #906237",
"@ 	c #4E2F27",
"# 	c #101A1B",
"$ 	c #D68F4F",
"% 	c #E69956",
"& 	c #FFAE5D",
"* 	c #FFAD5D",
"= 	c #91503E",
"- 	c #4B2E25",
"; 	c #25201C",
"> 	c #8C5F35",
", 	c #B07741",
"' 	c #FFAF5E",
") 	c #EFA058",
"! 	c #E59855",
"~ 	c #FEAB5C",
"{ 	c #935140",
"] 	c #E6844A",
"^ 	c #D87C44",
"/ 	c #935531",
"( 	c #27221D",
"_ 	c #E59B53",
": 	c #F7A75A",
"< 	c #DD824B",
"[ 	c #F28B4B",
"} 	c #E5834A",
"| 	c #F38C4C",
"1 	c #E08146",
"2 	c #643C26",
"3 	c #8A6036",
"4 	c #FEA358",
"5 	c #F89A53",
"6 	c #FCA559",
"7 	c #FFAE5E",
"8 	c #F9A056",
"9 	c #E68C4E",
"0 	c #DB7D48",
"a 	c #F08448",
"b 	c #EF8448",
"c 	c #945240",
"d 	c #CA7346",
"e 	c #F58D4C",
"f 	c #F08247",
"g 	c #CE713E",
"h 	c #9D5C34",
"i 	c #3C2E20",
"j 	c #E49A53",
"k 	c #EC8A4B",
"l 	c #F69550",
"m 	c #FEAA5B",
"n 	c #EA7841",
"o 	c #EF8247",
"p 	c #E38048",
"q 	c #DB7E48",
"r 	c #F38B4B",
"s 	c #D1643C",
"t 	c #A65C41",
"u 	c #F18B4C",
"v 	c #F2894A",
"w 	c #ED7E44",
"x 	c #E7703D",
"y 	c #E17741",
"z 	c #583623",
"A 	c #815832",
"B 	c #B57B43",
"C 	c #FFAC5C",
"D 	c #F89C54",
"E 	c #FAA156",
"F 	c #F3904E",
"G 	c #EB7840",
"H 	c #E8713D",
"I 	c #F38D4C",
"J 	c #E4834A",
"K 	c #D9663B",
"L 	c #CE633C",
"M 	c #B85B3D",
"N 	c #C5663F",
"O 	c #D17847",
"P 	c #F58E4C",
"Q 	c #F28A4B",
"R 	c #ED7D44",
"S 	c #F58D4D",
"T 	c #CB7540",
"U 	c #A35E35",
"V 	c #DF9752",
"W 	c #F8A85B",
"X 	c #F79953",
"Y 	c #EB7B43",
"Z 	c #EE844B",
"` 	c #F1985E",
" .	c #F1AB74",
"..	c #E8713E",
"+.	c #CD623C",
"@.	c #DD6D41",
"#.	c #E8AD7D",
"$.	c #DE7347",
"%.	c #A65A40",
"&.	c #E88349",
"*.	c #EB7D44",
"=.	c #F18B4B",
"-.	c #EA8749",
";.	c #543423",
">.	c #916237",
",.	c #FAA357",
"'.	c #F28E4C",
").	c #EC783E",
"!.	c #F1AC76",
"~.	c #F1B37D",
"{.	c #EED09C",
"].	c #F1AD77",
"^.	c #E9713E",
"/.	c #DE7442",
"(.	c #DB7E49",
"_.	c #EE8046",
":.	c #BA5D3E",
"<.	c #DD6D42",
"[.	c #EED29D",
"}.	c #EECC98",
"|.	c #EA8C5D",
"1.	c #C66340",
"2.	c #C66941",
"3.	c #D07747",
"4.	c #F48D4C",
"5.	c #DB7E45",
"6.	c #F79751",
"7.	c #EF8447",
"8.	c #F08B4F",
"9.	c #EECD99",
"0.	c #EECB96",
"a.	c #F1AE77",
"b.	c #EFC590",
"c.	c #F39254",
"d.	c #E76C3B",
"e.	c #E48149",
"f.	c #E9743F",
"g.	c #D5653C",
"h.	c #9E5540",
"i.	c #DC683C",
"j.	c #EAA475",
"k.	c #EDC390",
"l.	c #EAA374",
"m.	c #EECB97",
"n.	c #E99F71",
"o.	c #A8593F",
"p.	c #E9713D",
"q.	c #F1884A",
"r.	c #D97D44",
"s.	c #8C5832",
"t.	c #F99B54",
"u.	c #FAA056",
"v.	c #F18A4B",
"w.	c #F18D50",
"x.	c #EED29E",
"y.	c #F1AD76",
"z.	c #F2A26A",
"A.	c #F0B983",
"B.	c #D56E41",
"C.	c #EB7842",
"D.	c #EDC491",
"E.	c #EAA979",
"F.	c #E78355",
"G.	c #EBA374",
"H.	c #A95A40",
"I.	c #ED7A42",
"J.	c #EE7F45",
"K.	c #EC7B43",
"L.	c #D26C3C",
"M.	c #FFAC5D",
"N.	c #F4934F",
"O.	c #F1894B",
"P.	c #F29A60",
"Q.	c #EFC591",
"R.	c #F1B17B",
"S.	c #EECF9B",
"T.	c #E27F48",
"U.	c #E49755",
"V.	c #D1633C",
"W.	c #E88C5E",
"X.	c #E87749",
"Y.	c #AA5D41",
"Z.	c #F38A4B",
"`.	c #EB7741",
" +	c #D97C44",
".+	c #F38F4D",
"++	c #EED19D",
"@+	c #F1B27C",
"#+	c #F3995D",
"$+	c #E78E4F",
"%+	c #C35F3D",
"&+	c #AA583F",
"*+	c #DD693D",
"=+	c #ECB483",
"-+	c #AA5C41",
";+	c #F3894A",
">+	c #FAA358",
",+	c #EC7D44",
"'+	c #E86F3D",
")+	c #EFC28D",
"!+	c #F28849",
"~+	c #F0864A",
"{+	c #EB7A42",
"]+	c #E39353",
"^+	c #F69450",
"/+	c #FDA75A",
"(+	c #935240",
"_+	c #E66A3A",
":+	c #B55B3E",
"<+	c #C0603F",
"[+	c #DA693E",
"}+	c #EA9B6D",
"|+	c #EECE9A",
"1+	c #EBA373",
"2+	c #A85940",
"3+	c #EA723E",
"4+	c #F08649",
"5+	c #DA7E45",
"6+	c #00161A",
"7+	c #864B2C",
"8+	c #EF8347",
"9+	c #EE8045",
"0+	c #F18A4C",
"a+	c #F2A66D",
"b+	c #EB7944",
"c+	c #F89E55",
"d+	c #DA663B",
"e+	c #E76A3A",
"f+	c #DE673B",
"g+	c #CF633C",
"h+	c #B0573C",
"i+	c #E58F62",
"j+	c #E97F50",
"k+	c #AB5E41",
"l+	c #EC7A42",
"m+	c #D2693A",
"n+	c #00181A",
"o+	c #89502E",
"p+	c #F48C4C",
"q+	c #EE8146",
"r+	c #EC7E44",
"s+	c #FDA95B",
"t+	c #ED8146",
"u+	c #D7653B",
"v+	c #AF5A3F",
"w+	c #E4693A",
"x+	c #B45B3E",
"y+	c #C6603D",
"z+	c #A95E42",
"A+	c #DA7D45",
"B+	c #F08749",
"C+	c #E8703D",
"D+	c #F08548",
"E+	c #C8613D",
"F+	c #E2693A",
"G+	c #C4603D",
"H+	c #D2653D",
"I+	c #B16443",
"J+	c #874A2C",
"K+	c #EE8246",
"L+	c #FCA75A",
"M+	c #EF8548",
"N+	c #EA7540",
"O+	c #F39052",
"P+	c #F1A46C",
"Q+	c #F2A46C",
"R+	c #F29D63",
"S+	c #D56B3F",
"T+	c #B45A3E",
"U+	c #DF683B",
"V+	c #C5603D",
"W+	c #CF7445",
"X+	c #C57142",
"Y+	c #00171A",
"Z+	c #8D5C34",
"`+	c #FBA358",
" @	c #E66B3B",
".@	c #F18749",
"+@	c #EB7942",
"@@	c #F38B4C",
"#@	c #F38B4A",
"$@	c #F2995E",
"%@	c #AE593F",
"&@	c #C7603D",
"*@	c #E56A3A",
"=@	c #DD673B",
"-@	c #C25B36",
";@	c #00191A",
">@	c #F89D54",
",@	c #F0884A",
"'@	c #E66939",
")@	c #EB7841",
"!@	c #E76E3C",
"~@	c #F08146",
"{@	c #F08246",
"]@	c #F08044",
"^@	c #D1693F",
"/@	c #BA5C3D",
"(@	c #CC623C",
"_@	c #CE5F35",
":@	c #8F6237",
"<@	c #EA7740",
"[@	c #E76D3C",
"}@	c #EA7741",
"|@	c #F1874A",
"1@	c #F39051",
"2@	c #6B3423",
"3@	c #633121",
"4@	c #5E2F21",
"5@	c #D66437",
"6@	c #ED7C43",
"7@	c #F28D4F",
"8@	c #F28B4D",
"9@	c #D3643C",
"0@	c #CC5E34",
"a@	c #CC5C33",
"b@	c #EA8A59",
"c@	c #E77C4D",
"d@	c #EED4A0",
"e@	c #E87B4C",
"f@	c #A45F36",
"g@	c #131B1B",
"h@	c #141B1B",
"i@	c #151B1B",
"j@	c #2E251E",
"k@	c #ED7A40",
"l@	c #EDCC98",
"m@	c #E9A273",
"n@	c #EFA46F",
"o@	c #E96E3C",
"p@	c #CE683F",
"q@	c #00191B",
"r@	c #D87A43",
"s@	c #EA7640",
"t@	c #EB7F4C",
"u@	c #F18B4E",
"v@	c #F29B61",
"w@	c #E87240",
"x@	c #A66036",
"y@	c #38271E",
"z@	c #F1975D",
"A@	c #F19054",
"B@	c #F1945B",
"C@	c #F48B4B",
"D@	c #251F1C",
"E@	c #E99F70",
"F@	c #E78356",
"G@	c #E9A172",
"H@	c #ECC492",
"I@	c #EE7E43",
"J@	c #EB7B46",
"K@	c #F39356",
"L@	c #E8713F",
"M@	c #EC7C43",
"N@	c #F29054",
"O@	c #F28E50",
"P@	c #F18E52",
"Q@	c #EA8F5F",
"R@	c #ED8752",
"S@	c #F0B882",
"T@	c #E77545",
"U@	c #E9723E",
"V@	c #A15430",
"W@	c #ED7B42",
"X@	c #EFB27D",
"Y@	c #EE9863",
"Z@	c #EFAC78",
"`@	c #EE7E44",
" #	c #EB804C",
".#	c #F29C61",
"+#	c #A65F35",
"@#	c #F1955B",
"##	c #E99E70",
"$#	c #EE935D",
"%#	c #EED49F",
"&#	c #F3884A",
"*#	c #EEA976",
"=#	c #EDC492",
"-#	c #EE7E42",
";#	c #E76E3D",
">#	c #E9733F",
",#	c #E97543",
"'#	c #111A1B",
")#	c #382621",
"!#	c #442B24",
"~#	c #F08046",
"{#	c #E97442",
"]#	c #E97340",
"^#	c #E87441",
"/#	c #DA7E44",
"(#	c #F28B4C",
"_#	c #B76140",
":#	c #BC6B45",
"<#	c #BC6240",
"[#	c #7B4536",
"}#	c #8E4F3D",
"|#	c #975440",
"1#	c #975340",
"2#	c #7E4737",
"3#	c #4B2F24",
"4#	c #F08045",
"5#	c #D97846",
"6#	c #BB6A44",
"7#	c #BB6944",
"8#	c #DE7C47",
"9#	c #874B3A",
"0#	c #985440",
"a#	c #965340",
"b#	c #653A2E",
"c#	c #27201E",
"d#	c #995541",
"e#	c #955240",
"f#	c #0B1B1B",
"g#	c #A3754E",
"h#	c #A3764E",
"i#	c #A4764E",
"j#	c #A4764F",
"k#	c #463528",
"l#	c #9D482A",
"m#	c #CF6035",
"                            . + + @                             ",
"                        # $ % & * = - ;                         ",
"                    > , ' ) ! ~ ~ { ] ^ /                       ",
"                ( _ : * * ) < [ [ { } | | 1 2                   ",
"            3 , 4 5 6 7 8 9 0 a b c d e | | f g h               ",
"        i j k l m * ~ n o p q r [ c s t ] u v w x y z           ",
"    A B ' C D 7 E F G H I J 0 | | c K L M N O P Q R S T U       ",
"  V W * * ~ X Y Z `  ...| J 0 | | c K +.@.#.$.%.&.*.| | =.-.;.  ",
">.& * * ,.'.).!.~.{.].^.o /.(._.| c :.L <.[.}.|.1.2.3.4.| | 5.  ",
"+ & m 6.7.8.9.0.a.b.c.d.o e.(.f.| c g.h.i.j.k.l.m.n.o.p.q.r r.  ",
"s.t.u.D v.w.x.y.z.A.a.^.I J B.d.C.c K +.<.D.E.F.9.G.H.I.J.K.L.  ",
"+ M.* C N.O.P.Q.R.S.y.^.Q T.U.~ ~ c V.+.<.{.m.l.W.X.Y.Z.`.|  +  ",
"+ & * * .+w.++m.@+}.#+d.'.$+! * * c %+&+*+=+}.l.{.G.-+;+| | r.  ",
"+ & >+,+'+w.++)+!+~+{+~ * ) ]+^+/+(+K _+:+<+[+}+|+1+2+3+4+Q 5+6+",
"7+8+o [ 9+0+a+b+=.c+7 * * ) 0 | | (+d+_+e+f+g+h+i+j+k+e 8+l+m+n+",
"o+p+| | 9+q+r+s+* * & 8 t+_+_+_+_+u+v+g.w+_+_+e+x+y+z+e | | A+6+",
"o+p+| C.B+8 & * * s+r+_+_+C+D+D+D+R _+g.:+E+_+_+F+G+H+I+u | A+6+",
"J+f K+L+* * 7 c+M+_+'+N+D+O+P+Q+Q+R+r N+d.S+T+V.U+V+_+e+T+W+X+Y+",
"Z+`+* * * m {+ @l+.@+@@@#@b.|+|+|+}.$@I ^.Q M+K %@&@*@_+_+=@-@;@",
"+ & 7 >@,@'@)@!@I | +@~@{@]@]@]@]@]@~@f '+I | R `.^@/@(@_+_+_@;@",
":@~ <@[@}@|@1@..I | {+2@3@3@3@3@3@3@3@4@5@I | 6@7@8@b =@&+9@0@;@",
"  a@'+v b@c@d@e@I | f@g@h@h@h@h@h@h@h@i@j@S | k@l@m@n@9+o@p@q@h@",
"  r@s@@@t@u@v@w@J.[ x@h@h@h@h@h@h@h@h@h@y@S | 6@z@A@B@9+f.C@D@h@",
"  r.o @@E@F@d@e@D+@@x@h@h@h@h@h@h@h@h@h@y@S | k@l@G@H@I@_.4.; h@",
"  r.l+@@J@8@K@L@M@Q x@h@h@h@h@h@h@h@h@h@y@S | 6@N@O@P@J.Q 4.; h@",
"  r.| @@Q@R@S@T@U@+@V@h@h@h@h@h@h@h@h@h@y@S | W@X@Y@Z@`@| 4.; h@",
"  r.| @@ #u@.#w@@@[ +#h@h@h@h@h@h@h@h@h@y@p+| 6@` A@@#J.| 4.; h@",
"  r.| @@##$#%#e@I | x@h@h@h@h@h@h@h@h@h@y@&#[ k@l@*#=#-#| 4.; h@",
"  r.| @@;#>#,#!@I | x@'#)#!#!#!#!#!#!## y@~#v R {#]#^#9+| 4.; h@",
"  /#4.(#_#:#:#<#e 4.x@[#}#|#|#|#|#|#1#2#3#4#v 5#6#:#7#8#4.S ; h@",
"  9#0#0#a#a#a#a#0#0#b#                  c#d#a#a#e#e#e#a#a#|#f#h@",
"g#h#g#g#g#g#g#g#g#g#i#g#g#g#g#g#g#g#g#j#k#l#;+4.4.4.4.4.4.4.m#  "};
