/* XPM */
static char *_cd2ba4a1d78478cd07aeda64e320739H9vOQGGCtkLyYJQy[] = {
/* columns rows colors chars-per-pixel */
"32 32 172 2 ",
"   c None",
".  c #483629",
"X  c #573324",
"o  c #543425",
"O  c #61362E",
"+  c #60372E",
"@  c #61372E",
"#  c #63372E",
"$  c #63392F",
"%  c #65392E",
"&  c #643A2F",
"*  c #643A30",
"=  c #653A30",
"-  c #663B30",
";  c #683B30",
":  c #683C31",
">  c #6C3D32",
",  c #6D3F33",
"<  c #724034",
"1  c #744134",
"2  c #744135",
"3  c #754335",
"4  c #774436",
"5  c #774636",
"6  c #784336",
"7  c #784436",
"8  c #794436",
"9  c #784537",
"0  c #7A4436",
"q  c #774837",
"w  c #774938",
"e  c #784938",
"r  c #7C4A39",
"t  c #7C4F3B",
"y  c #884B3B",
"u  c #8D4E3D",
"i  c #80543D",
"p  c #85553E",
"a  c #85563E",
"s  c #84573E",
"d  c #8B533E",
"f  c #91513E",
"g  c #93513E",
"h  c #92503F",
"j  c #93513F",
"k  c #95523F",
"l  c #AD583D",
"z  c #B85A37",
"x  c #B45B3E",
"c  c #B45C3E",
"v  c #B55D3E",
"b  c #B65D3E",
"n  c #C75E37",
"m  c #C85E37",
"M  c #C35F3C",
"N  c #C7613C",
"B  c #D96D3F",
"V  c #E96B3A",
"C  c #EA713D",
"Z  c #955240",
"A  c #965340",
"S  c #975340",
"D  c #975440",
"F  c #975742",
"G  c #985441",
"H  c #985641",
"J  c #985642",
"K  c #915941",
"L  c #985943",
"P  c #995A43",
"I  c #985B43",
"U  c #9A5B43",
"Y  c #9A5B44",
"T  c #995C44",
"R  c #985D45",
"E  c #9A5D44",
"W  c #9B5D44",
"Q  c #995F45",
"!  c #9A5E44",
"~  c #9A5E45",
"^  c #9B5F45",
"/  c #966446",
"(  c #976747",
")  c #9B6045",
"_  c #9B6046",
"`  c #9B6146",
"'  c #9A6247",
"]  c #9E6145",
"[  c #9D6246",
"{  c #9C6346",
"}  c #9C6347",
"|  c #9D6347",
" . c #9B6447",
".. c #9C6447",
"X. c #9D6447",
"o. c #9C6547",
"O. c #9D6547",
"+. c #9F6447",
"@. c #9F6547",
"#. c #976847",
"$. c #9D6548",
"%. c #9D6648",
"&. c #9E6748",
"*. c #996A49",
"=. c #986B49",
"-. c #9E6849",
";. c #9F6949",
":. c #9E6A49",
">. c #9E6B4A",
",. c #9F6B4A",
"<. c #996C49",
"1. c #9A6C49",
"2. c #9E6C4A",
"3. c #9F6E4B",
"4. c #9F6F4C",
"5. c #9F704C",
"6. c #A76847",
"7. c #A96A47",
"8. c #A06C4A",
"9. c #A06D4B",
"0. c #A16F4C",
"q. c #AA6C48",
"w. c #BF6B43",
"e. c #A1704C",
"r. c #A2714C",
"t. c #A0724D",
"y. c #A0734D",
"u. c #A1734D",
"i. c #A2724D",
"p. c #A2734D",
"a. c #A3734D",
"s. c #A1734E",
"d. c #A1744D",
"f. c #A2744D",
"g. c #A2744E",
"h. c #A3744E",
"j. c #A2754E",
"k. c #A3754E",
"l. c #A1764F",
"z. c #A3764E",
"x. c #A2764F",
"c. c #A4764E",
"v. c #A4764F",
"b. c #A5774F",
"n. c #AC724B",
"m. c #AC734B",
"M. c #BD7146",
"N. c #BC7147",
"B. c #BD7147",
"V. c #CC7244",
"C. c #D57443",
"Z. c #E37742",
"A. c #EB7640",
"S. c #EB7741",
"D. c #E87742",
"F. c #E87842",
"G. c #EB7842",
"H. c #EC7B43",
"J. c #E97B44",
"K. c #ED7C44",
"L. c #ED7D44",
"P. c #EF8046",
"I. c #F08347",
"U. c #F18749",
"Y. c #F2884A",
"T. c #F2894A",
"R. c #F2894B",
"E. c #F28A4B",
"W. c #F38B4C",
"Q. c #F38C4C",
"!. c #F38D4C",
"~. c #F38D4D",
/* pixels */
"X X X X X X X X X X X X X X X o . X X X X X X X X X X X X X X X ",
"K.K.K.K.K.K.K.K.L.L.L.L.H.L.L.J.C.H.H.L.L.L.L.L.G.L.K.K.K.K.K.K.",
"Y.Q.Y.Q.!.Q.Q.Q.Q.Q.Q.Q.Q.Q.Q.Q.C G.Y.Q.Q.Q.Q.Q.Q.Q.!.!.!.!.!.!.",
"G.P.P.Q.!.Q.Q.Q.Q.Q.Q.Q.Q.Q.Q.E.D.E.Q.Q.Q.Q.Q.Q.Q.Q.Q.Q.Q.Q.Q.Q.",
"F.D.G.D.F.F.F.F.G.D.D.D.D.D.D.Z.V.D.G.D.D.D.G.D.D.D.D.G.F.F.F.F.",
"m.m.m.n.m.m.m.m.n.n.m.m.m.q.7.7.` n.n.n.m.m.n.n.m.m.m.n.m.m.m.m.",
"j.j.j.j.j.j.j.j.j.j.j.j.i.&...` ^ j.j.j.j.j.j.j.j.j.j.j.j.j.j.j.",
"i.j.j.c.j.c.j.j.c.j.c.j.j.j.c...W c.c.j.j.j.j.c.j.j.j.c.j.j.i.i.",
"&.c.j.c.c.j.c.j.c.j.c.i.j.c.j.0.` j.c.j.j.c.j.c.j.c.j.c.j.c.2.` ",
"....i.c.c.c.c.c.c.c.c.c.c.j.c.i.^ c.c.j.c.c.c.j.c.c.c.j.c.c.c.8.",
"/ / *.*.1.1.*.*.=.=.*.1.1.1.1.#.K *.=.=.#.1.=.=.*.*.1.1.1.1.*./ ",
"= = & & & : 2 6 4 < * = & : & : = & : & : & < 9 4 4 : $ $ & & & ",
"X = + + 2 , Z G D 9                         0 G G Z < < $ $ # X ",
": * + 6 Z 6 Z k k 9                         0 G k Z 2 j 2 # * > ",
"Z > 6 I Z , G G G 0                         9 k D Z 2 j R t > Z ",
"y i R &.Z , G k k 0                         0 G Z k < Z -.l.t y ",
"s i.l.-.Z 4 D D k 0                         0 k G L 2 j -.b.j.i ",
"j.j.c.-.j w  .k G 9                         0 G k ` q h -.j.c.c.",
"j.c.j.&.d e o.o.G 9                         6 G ....e h -.j.c.j.",
"c.j.j.&.Z q -.2.W r                         r ^ 8.` e j -.c.j.c.",
"i.c.j.&.h 4 j.j.` i                         i ` &. .q Z -.j.c.j.",
"v.j.v.-.j q 5.j.c.i                         i c.0.3.q d -.c.j.c.",
"c.j.j.-.j q j.l.m.i                         i c.i.-.w Z -.j.c.j.",
"j.c.v.-.Z 4 j.l.3.d                         d 0.j.j.4 Z -.c.i.c.",
"c.j.0.-.Z q s.>.L                             L 0.i.q j &.j.j.j.",
"c.h.W &.Z q >.I                                 L 2.q j -.j.c.j.",
"3.3.W &.M z q                                     4 z N ..' 5.5.",
"b b c N V m +                                     $ m V N x b b ",
"B.B.N.N.C.n O                                     & n B B.B.B.B.",
"j.l.j.j.V.l                                         l w.j.l.i.j.",
"&.&.&.&.W                                             W &.&.T ' ",
"                                                                "
};
