/* XPM */
static char * No_xpm[] = {
"32 32 82 1",
" 	c #C52424",
".	c #FFFFFF",
"+	c #F5E8E8",
"@	c #C52828",
"#	c #DBA1A1",
"$	c #F0DDDD",
"%	c #FAF3F3",
"&	c #FEFCFC",
"*	c #FBF5F5",
"=	c #F0DBDB",
"-	c #D99B9B",
";	c #C73939",
">	c #DEAAAA",
",	c #F9F3F3",
"'	c #FCF8F8",
")	c #F7ECEC",
"!	c #E9CACA",
"~	c #D38282",
"{	c #CA5151",
"]	c #F1DEDE",
"^	c #ECD0D0",
"/	c #C62C2C",
"(	c #D28080",
"_	c #F8F0F0",
":	c #EBCFCF",
"<	c #F6EAEA",
"[	c #F2E2E2",
"}	c #E1B3B3",
"|	c #D38181",
"1	c #FDFAFA",
"2	c #FBF7F7",
"3	c #E2B6B6",
"4	c #CF6F6F",
"5	c #C73C3C",
"6	c #C94E4E",
"7	c #D99898",
"8	c #F7EDED",
"9	c #C63636",
"0	c #C73E3E",
"a	c #F8EEEE",
"b	c #FEFDFD",
"c	c #E7C5C5",
"d	c #D17878",
"e	c #D89797",
"f	c #F4E6E6",
"g	c #FAF4F4",
"h	c #CE6C6C",
"i	c #CB5A5A",
"j	c #D58C8C",
"k	c #DEA9A9",
"l	c #FFFEFE",
"m	c #D89696",
"n	c #EFDADA",
"o	c #DB9F9F",
"p	c #E8C8C8",
"q	c #E1B2B2",
"r	c #F3E2E2",
"s	c #E9C8C8",
"t	c #CA5555",
"u	c #FDFBFB",
"v	c #DDA7A7",
"w	c #E5C0C0",
"x	c #FDFCFC",
"y	c #D07373",
"z	c #E9CBCB",
"A	c #F6EBEB",
"B	c #DA9B9B",
"C	c #E8C7C7",
"D	c #DCA3A3",
"E	c #D68C8C",
"F	c #D68D8D",
"G	c #CF7171",
"H	c #D79090",
"I	c #C63333",
"J	c #EFD9D9",
"K	c #E6C2C2",
"L	c #D07575",
"M	c #C95050",
"N	c #F4E5E5",
"O	c #EBD0D0",
"P	c #DEABAB",
"Q	c #FCF9F9",
"                                ",
"                                ",
"                                ",
"                                ",
"                                ",
"                                ",
"                                ",
"                                ",
"                                ",
"..+ @#$%&*=-          ;>=,&')!~ ",
"..+{].......^/       (_........:",
"..<[.........}      |1..........",
"....2345678..*9    0a..bcd0{ef..",
"...gh     i2..j    k..lm     9n.",
"...o       p..q    r..s       t'",
"..u9       v..w   9x..y        z",
"..A        B..C   h..2         D",
"..+        -..C   (..A         E",
"..+        -..C   |..A         F",
"..+        -..C   h..2         D",
"..+        -..C   9x..G        !",
"..+        -..C    r..C       {'",
"..+        -..C    k..bH     IJ.",
"..+        -..C    0a..&KL5MmN..",
"..+        -..C     |1..........",
"..+        -..C      |_........O",
"..+        -..C       ;P=%&Q8z~ ",
"                                ",
"                                ",
"                                ",
"                                ",
"                                "};
