/* XPM */
static char * Pink_Monster_xpm[] = {
"32 32 9 1",
" 	c None",
".	c #C3242F",
"+	c #FCFEFE",
"@	c #E7333B",
"#	c #03396B",
"$	c #0FEFFB",
"%	c #0696DB",
"&	c #04193F",
"*	c #000000",
"                                ",
"                                ",
"                                ",
"                                ",
"          &&     &&             ",
"         &++&   &%%&            ",
"        &++++&&&%%%&            ",
"        &+++++&&%%%%&           ",
"         &+++@@@@%%%&           ",
"         &@+++++@@@%%&          ",
"        &@+++++++@@@%&&         ",
"        &+++++++++++%%&         ",
"       &@++++++++++++%&&        ",
"       &++++++&&&+++&&%&        ",
"       &+++++&&++&+&&+&&        ",
"       &+++++&&++&+&&+&&        ",
"       &+++++&&&&&+&&&&&        ",
"       &@+++++&&&+++&&%&        ",
"        &+++++++++++++&         ",
"        &@++++@++++++%&         ",
"         &+++++@@@%%%&          ",
"         &+++++++++%&&          ",
"        &++++%+++++%%&          ",
"        &++++%++++++%&          ",
"       &++++%@++++++%%&         ",
"       &++++%@++++++%%&         ",
"       &+++%@+++++++%%&         ",
"        &%%@@++++++%&&          ",
"         &@@+++@@@%%&           ",
"         &++++&&%%%%&           ",
"         &++++&&%%%&            ",
"         &+++& &%%%&            "};
