/* XPM */
static char * Wall_xpm[] = {
"32 32 146 2",
"  	c None",
". 	c #5B6425",
"+ 	c #5A6325",
"@ 	c #535B23",
"# 	c #5B6325",
"$ 	c #505823",
"% 	c #2E341D",
"& 	c #8F9C32",
"* 	c #8E9B31",
"= 	c #98B338",
"- 	c #99A634",
"; 	c #8E9A31",
"> 	c #AABA39",
", 	c #8CA534",
"' 	c #8D9A31",
") 	c #5D862D",
"! 	c #5F862D",
"~ 	c #92AF37",
"{ 	c #9FAD36",
"] 	c #60822C",
"^ 	c #A6B739",
"/ 	c #ADBC3A",
"( 	c #A0B638",
"_ 	c #A1B639",
": 	c #AEBC3A",
"< 	c #89AB36",
"[ 	c #A8B939",
"} 	c #9DB438",
"| 	c #A2B639",
"1 	c #A6B939",
"2 	c #99B338",
"3 	c #9BB338",
"4 	c #587F2B",
"5 	c #97B238",
"6 	c #98B238",
"7 	c #9CB438",
"8 	c #97B137",
"9 	c #A4B939",
"0 	c #5B822C",
"a 	c #A4B739",
"b 	c #ABBB3A",
"c 	c #AABA3A",
"d 	c #A9BA3A",
"e 	c #A4B839",
"f 	c #344B20",
"g 	c #679330",
"h 	c #ACBC3A",
"i 	c #8EAD36",
"j 	c #3C5622",
"k 	c #96B238",
"l 	c #ACBB3A",
"m 	c #9FB538",
"n 	c #99B238",
"o 	c #3D5623",
"p 	c #74A434",
"q 	c #8DAD36",
"r 	c #93B037",
"s 	c #3C5623",
"t 	c #7EA835",
"u 	c #87AB36",
"v 	c #75A434",
"w 	c #87AA36",
"x 	c #8AAC36",
"y 	c #7BA735",
"z 	c #86AA36",
"A 	c #88AB36",
"B 	c #85AA36",
"C 	c #A5B839",
"D 	c #91AF37",
"E 	c #A2B739",
"F 	c #95B137",
"G 	c #9EB538",
"H 	c #80A835",
"I 	c #AABB3A",
"J 	c #3B5622",
"K 	c #9DB538",
"L 	c #A6B839",
"M 	c #84AA36",
"N 	c #95B037",
"O 	c #3B5522",
"P 	c #92B037",
"Q 	c #4F7C3E",
"R 	c #9AB338",
"S 	c #558846",
"T 	c #97B237",
"U 	c #78A434",
"V 	c #96B137",
"W 	c #8BAC36",
"X 	c #90AE37",
"Y 	c #568946",
"Z 	c #74A333",
"` 	c #7AA535",
" .	c #94B037",
"..	c #B0BD3A",
"+.	c #7DA635",
"@.	c #75A334",
"#.	c #A3B739",
"$.	c #538647",
"%.	c #85A73A",
"&.	c #73A334",
"*.	c #71A234",
"=.	c #82A935",
"-.	c #72A234",
";.	c #76A434",
">.	c #A7B939",
",.	c #7CA635",
"'.	c #74A334",
").	c #A9BA39",
"!.	c #81A835",
"~.	c #6F9E38",
"{.	c #548747",
"].	c #93A941",
"^.	c #7FA735",
"/.	c #8FAE37",
"(.	c #77A434",
"_.	c #78A534",
":.	c #7EA735",
"<.	c #79A534",
"[.	c #66963E",
"}.	c #6E993E",
"|.	c #84A63A",
"1.	c #90AF36",
"2.	c #84A935",
"3.	c #A3B738",
"4.	c #86AA35",
"5.	c #8CAD36",
"6.	c #9AB337",
"7.	c #89AC35",
"8.	c #93AD3C",
"9.	c #8DA641",
"0.	c #528647",
"a.	c #698F47",
"b.	c #608C47",
"c.	c #5B8A47",
"d.	c #668E47",
"e.	c #618C47",
"f.	c #658E47",
"g.	c #678E47",
"h.	c #5C8A47",
"i.	c #5E8B47",
"j.	c #688F47",
"k.	c #638D47",
"l.	c #5A8A47",
"m.	c #648D47",
"n.	c #5D8B47",
"o.	c #688E48",
"              .       + @           # $         .               ",
"        % & * = - * ; > , ' ) ! * * ~ { * * * - = * & %         ",
"      ] ^ / / ( _ / : < / [ } | / / 1 2 / / / _ 3 / / ^ ]       ",
"    4 5 / / / / / / / : / 6 7 / / / / / / / / : 7 8 / / 9 ]     ",
"  0 a b / / / / / / / / / / c / / / / / / / / / / d / / / e 0   ",
"f g ~ : / : } / / / / / / / / / / ( h / / / / / / / / / e i g f ",
"j k l / / } m / / / / / / / / / e n / / / / / / / / / d ~ b k j ",
"o p q : / / / / / / / / / / / / / / / / / / / / / / / / : q p o ",
"j r / / / / / / / / / / / / / / / / / / / / / / / / / / / / r j ",
"s t b / / / / / / / / / / / / / / / / / / / / / / / / / / b t s ",
"j u / / / / / / / / / / / / / / / / / / / / / / / / / / / / u j ",
"o v w : / / / / / / / / / / / / / / / / / / / / / / / / : w v o ",
"j x : / / / / / / / / / / / / / / / / / / / / / / / / / / : x j ",
"s y z : / / / / / / / / / b / / / / / / / / / / l / / / : A y s ",
"s B i C / / / / / / / / : D E / / / / / / / / / F G / / / h B s ",
"s H I [ / / / / / / / / / / C / / / / / / / / / / e / / / l H s ",
"J K / / / / e / / / / / / / / / / L / / / / / / / / / / [ b K J ",
"s M h / / ( n / / / / / / / / / L N h / / / / / / / / c D c M s ",
"o v A : / h / / / / / / / / / / / h / / / / / / / / / / / A v o ",
"o p / / / / / / / / / / / / / / / / / / / / / / / / / / / / p o ",
"o v w : / / / / / / / / / / / / / / / / / / / / / / / / : w v o ",
"j u / / / / / / / / / / / / / / / / / / / / / / / / / / / / u j ",
"s t b / / / / / / / / / / / / / / / / / / / / / / / / / / b t s ",
"O P h / / / / / / / / / / / / / / / / / / / / / / / / / / h P O ",
"Q P / R c / / / / / / / / / / / / / / / / / / / / / / c R / P Q ",
"S T U V / / / / / / / / : W [ / / / / / / / / / X C / / R ( V S ",
"Y Z ` 1  .: / / : / / / : / m / / / / : / / / : : } :  ...+.Z Y ",
"Y @.@.U | I d } +.h / d ` #./ d c I #.` d / h +.} / I | U @.@.Y ",
"$.%.@.&.*.=.~ -.i d F N A ;.>.,.,. .'.A V _ 3 i -.).!.-.'.&.~.{.",
"  ].^./.m '.+.;.;.+.'.m '.@.+.;.=./.(.;.'.` _.@.@.:.F <.'.m [.  ",
"    }.|.1 1.2.( ( 2.1.1 r =.K 3.4.5.1 T !.6.C 7.7.C 6.!.8.9.    ",
"      0.a.b.c.d.d.c.b.a.e.c.f.g.h.i.j.k.l.m.j.n.n.j.m.l.o.      "};
