/* XPM */
static char * tile032_xpm[] = {
"32 32 11 1",
" 	c None",
".	c #1A1A24",
"+	c #1A1A24",
"@	c #000000",
"#	c #780F0F",
"$	c #FF0000",
"%	c #686159",
"&	c #78ACB9",
"*	c #FFFFFF",
"=	c #273E82",
"-	c #202840",
"                                ",
"                                ",
"                                ",
"                                ",
"                                ",
"                                ",
"                                ",
"            @@@@@@@@@@          ",
"          @@@#$$$$%%%@@@        ",
"         @@&@$$$$$%%%$@@@       ",
"     @@@@@&*@$$$$$%%$$@=@@      ",
"    @@$$@&**@$$%%$$$$$@&=@@     ",
"    @$$$@&&*@$$%%%$$$$@*&@@@    ",
"    @%$$@=&&@$$$%$$$$$@**@$@    ",
"    @%%$@==&@#$$$$$$$#@&*@$@    ",
"    @$%$@==@@@@@@@@@@@@&&@$@    ",
"   +@$$$@=@@==----@-==@@&@$@+   ",
"   +@@$$@@@====---@--==@@@$@+   ",
"   +@#@@@@@@@@@@@@@@@@@@@@#@+   ",
"   +@######@@#####@#######@@+   ",
"   +@@##@@@##@####@##@@@##@@+   ",
"   ++@@@@-@@@@@@@@@@@@-@@@@++   ",
"   +++@@---@@@@@@@@@@---@@+++   ",
"    +++@@-@@++++++++@@-@@+++    ",
"      ++++++++++++++++++++      ",
"                                ",
"                                ",
"                                ",
"                                ",
"                                ",
"                                ",
"                                "};
