/* XPM */
static char * CarRight_xpm[] = {
"32 32 11 1",
" 	c None",
".	c #1A1A24",
"+	c #1A1A24",
"@	c #000000",
"#	c #686159",
"$	c #FF0000",
"%	c #780F0F",
"&	c #78ACB9",
"*	c #273E82",
"=	c #FFFFFF",
"-	c #202840",
"                                ",
"                                ",
"                                ",
"                                ",
"                                ",
"                                ",
"                                ",
"          @@@@@@@@@@            ",
"        @@@##$$$$$%@@@          ",
"       @@@$###$$$$$@&@@         ",
"      @@*@$$##$$$$$@=&@@@@@     ",
"     @@*&@$$$$$##$$@==&@$$@@    ",
"    @@@&=@$$$$####$@=&&@$$$@    ",
"    @$@==@$$$#####$@&&*@$$#@    ",
"    @$@=&@%$$$###$%@&**@$##@    ",
"    @$@&&@@@@@@@@@@@@**@$#$@    ",
"   +@$@&@@**-@----**@@*@$$$@+   ",
"   +@$@@@**--@---****@@@$$@@+   ",
"   +@%@@@@@@@@@@@@@@@@@@@@%@+   ",
"   +@@%%%%%%%@%%%%%@@%%%%%%@+   ",
"   +@@%%@@@%%@%%%%@%%@@@%%@@+   ",
"   ++@@@@-@@@@@@@@@@@@-@@@@++   ",
"   +++@@---@@@@@@@@@@---@@+++   ",
"    +++@@-@@++++++++@@-@@+++    ",
"      ++++++++++++++++++++      ",
"                                ",
"                                ",
"                                ",
"                                ",
"                                ",
"                                ",
"                                "};
