/* XPM */
static char * CarUp_xpm[] = {
"32 32 10 1",
" 	c None",
".	c #1A1A24",
"+	c #1A1A24",
"@	c #000000",
"#	c #FF0000",
"$	c #686159",
"%	c #273E82",
"&	c #78ACB9",
"*	c #FFFFFF",
"=	c #780F0F",
"                                ",
"                                ",
"                                ",
"                                ",
"                                ",
"                                ",
"           @@@@@@@@@            ",
"          @@#$$$###@@           ",
"         @@#######$$@@          ",
"         @@@@@@@@@@@@@          ",
"         @%%&**&&&%%%@          ",
"      @@@@@@@@@@@@@@@@@@@       ",
"      @*&@=##$$$####=@&*@       ",
"      @@%@##$$$$#####@%@@       ",
"       @@@###$$######@@@        ",
"        +@#######$$##@+         ",
"        +@=#####$$$#=@+         ",
"        +@@@@@@@@@@@@@+         ",
"        +@%%&&***&&&%@+         ",
"        +@%&&***&&&%%@+         ",
"        +@@&***&&&%%@@+         ",
"        +@@@@@@@@@@@@@+         ",
"        +@#####$$####@+         ",
"        +@=###$$####=@+         ",
"        +@@@@=====@@@@+         ",
"        ++@##=====##@++         ",
"         +@@@@@@@@@@@+          ",
"         +++++++++++++          ",
"          +++++++++++           ",
"                                ",
"                                ",
"                                "};
