/* XPM */
static char *_91028a388ab4d24ed31f13700658ca3GRu8ritEQ2PsACsX[] = {
/* columns rows colors chars-per-pixel */
"32 32 167 2 ",
"   c None",
".  c #0E1919",
"X  c #131B1B",
"o  c #1A1C1C",
"O  c #2D211E",
"+  c #3C241F",
"@  c #36221D",
"#  c #2C2227",
"$  c #342424",
"%  c #3C2520",
"&  c #322329",
"*  c #3A262C",
"=  c #252F30",
"-  c #432721",
";  c #482621",
":  c #4B2922",
">  c #582D2A",
",  c #422932",
"<  c #4C2B36",
"1  c #542D3A",
"2  c #5A2F3D",
"3  c #522D37",
"4  c #5C313D",
"5  c #543939",
"6  c #652D24",
"7  c #6D3126",
"8  c #6C322A",
"9  c #73342B",
"0  c #7A352A",
"q  c #74392C",
"w  c #622F32",
"e  c #60303F",
"r  c #683636",
"t  c #723B31",
"y  c #664E3C",
"u  c #5E3341",
"i  c #653343",
"p  c #6C3445",
"a  c #6F3548",
"s  c #673D44",
"d  c #743647",
"f  c #733649",
"g  c #763C4D",
"h  c #7C394C",
"j  c #394444",
"k  c #4C494D",
"l  c #51454B",
"z  c #4D5556",
"x  c #5D5057",
"c  c #515658",
"v  c #7A4A41",
"b  c #7C554A",
"n  c #746A6C",
"m  c #78636B",
"M  c #786B73",
"N  c #767A7A",
"B  c #853A2D",
"V  c #8F3D2D",
"C  c #853729",
"Z  c #933C2C",
"A  c #9B3E2E",
"S  c #873935",
"D  c #813838",
"F  c #983D30",
"G  c #A23F2E",
"H  c #8F443B",
"J  c #A6402E",
"K  c #AB412F",
"L  c #B1432F",
"P  c #BD432E",
"I  c #A64234",
"U  c #AC4233",
"Y  c #AE433D",
"T  c #B34330",
"R  c #B1443B",
"E  c #BF473E",
"W  c #BC4834",
"Q  c #AB523B",
"!  c #C64731",
"~  c #C64935",
"^  c #CE4A35",
"/  c #C2473C",
"(  c #C4493B",
")  c #CA4938",
"_  c #D24B34",
"`  c #D5543A",
"'  c #D65A3F",
"]  c #843A46",
"[  c #843B4D",
"{  c #883C4F",
"}  c #903D47",
"|  c #973F49",
" . c #863C52",
".. c #8E3E56",
"X. c #8E3E58",
"o. c #913E56",
"O. c #9D414D",
"+. c #885148",
"@. c #8B5147",
"#. c #975948",
"$. c #974053",
"%. c #9A4051",
"&. c #815F5F",
"*. c #815453",
"=. c #AB4346",
"-. c #A3424B",
";. c #AA444A",
":. c #A64245",
">. c #B34544",
",. c #B94741",
"<. c #B64B47",
"1. c #A24F5C",
"2. c #A8555C",
"3. c #89635C",
"4. c #97635A",
"5. c #A2684F",
"6. c #A87D5D",
"7. c #935669",
"8. c #8D6775",
"9. c #946777",
"0. c #946B7A",
"q. c #8D7A77",
"w. c #A0717F",
"e. c #C55442",
"r. c #CA5547",
"t. c #D55E4B",
"y. c #D96246",
"u. c #D46B4C",
"i. c #DC6C4C",
"p. c #DA6749",
"a. c #DB7454",
"s. c #E17957",
"d. c #E27351",
"f. c #C77C6D",
"g. c #B28062",
"h. c #DC815D",
"j. c #E4855F",
"k. c #CA8F68",
"l. c #D88769",
"z. c #D68367",
"x. c #E48661",
"c. c #E78B64",
"v. c #EA9168",
"b. c #EEA275",
"n. c #EFA77A",
"m. c #ECA97B",
"M. c #F0A677",
"N. c #F0A678",
"B. c #F2AD7D",
"V. c #F3B07F",
"C. c #8A8F8F",
"Z. c #909696",
"A. c #9D9E9E",
"S. c #BD8A81",
"D. c #BE8590",
"F. c #A19F9F",
"G. c #BA94A1",
"H. c #A8A0A6",
"J. c #A9A8A8",
"K. c #A2A1A0",
"L. c #A9AFB0",
"P. c #CD8E90",
"I. c #CDA6A4",
"U. c #C1BDBD",
"Y. c #D1BBB8",
"T. c #C0C1C1",
"R. c #D4D4D6",
/* pixels */
"                                                                ",
"                                                                ",
"        z   C.A.                                                ",
"      L.T.m R.K.                                                ",
"    r Y.G. .D.+.                                                ",
"    Z t.1.2.2.R -   : -                         :               ",
"  : L _ l.B.M.u.+ 9 :.I %     + % % % % $     0 R 8             ",
"  > ^ ` b.V.V.h.+ 8 $.>.C 7 8 B T W J q L 0 7 I -.8             ",
"  J ^ ^ v.P.V.i.:   B ^ _ ! q.A.$ % n J.G _ _ _ 0               ",
"  K _ ^ ` i.d.` C @ L ! <.~ #.3.#.5.*.3.W e./ _ J % -           ",
"  J _ _ ^ _ _ _ S > ` Z A.I.@.6 q q r t g.T.v _ ~ r A 0         ",
"  K _ _ _ _ _ _ ] r ^ ! 4.Z.= . . . X o N N U _ >.u Q _ 9       ",
"  D ) _ _ _ ( ;...3 R _ G o X # & # & o . o T _ :.y k.d.L +     ",
"  , O.>.( >.$.X.$.1 } ) J $ 2  ...X.X.p 1 $ T ^ ] +.B.M.u.:     ",
"  & h $.$. .$.$.X.f 4 ;.^ R -.o.$.$.o.o.-.R _ ) 2 h f.B.v.H     ",
"    4 $.$.$.X. .X.X.i d ,.) ^ ( ( ~ ( ( ^ _ / | 3 1 h f.M.#.    ",
"    &  ...X...o...o. .i p $.-.-.-.-.-.-.-.-.h i h  .2 5 n.6.    ",
"      p o.o.........o...i 1 a ..X.X.X.X.o.f 2 h o.o.[ 4 g.6.    ",
"        p ..o.....o.X.-.>.O.{ $.....$.:.%. ...o.-.( ) ( H y     ",
"          p ......X.O.~ _ ^ ~ ! ( ( ) _ ( / $.%.) _ _ _ ^ :     ",
"          * X...o.O.( _ _ _ _ _ _ _ _ _ _ ^ %.%.^ _ _ _ _ Z     ",
"          *  .o.( ^ _ _ ' d.d.j.s.y._ _ _ ^ %.%.^ _ ^ _ _ K -   ",
"          * ..o.~ _ _ s.M.B.V.V.B.n.x.` _ ^ o.O.^ _ ^ _ _ ) w   ",
"            p o.E _ a.B.V.V.V.V.B.B.V.x._ ) %.%.^ _ _ t.r.P.g   ",
"            2 o.%.>.a.n.n.B.P.V.B.B.N.c.,.O.....-.R ;.I.w.H.x   ",
"              f o...<.' y.j.x.l.x.i.` e.$....... .$ 1 n M k j   ",
"              4 o...o.( _ _ ( | ) _ _ ,.X.....X.<               ",
"            2 X...o.o.] G L T G T T F [ o...o. .,               ",
"          2 X.....o...a $ O O O O   * h ......o. .<             ",
"          p o...X. .1                 # 4 X.o...o.i             ",
"          p 0.7.8.1                       u 0.7.9.2             ",
"            c l z                           z l c               "
};
