/* XPM */
static char *bc31e4fc9b0d4643d60da87f6037d9b7J45BlA67ZHYJI10c[] = {
/* columns rows colors chars-per-pixel */
"32 32 194 2 ",
"   c None",
".  c #101818",
"X  c #311F1C",
"o  c #32221E",
"O  c #261E22",
"+  c #242325",
"@  c #2A2125",
"#  c #28292B",
"$  c #3B262D",
"%  c #292F30",
"&  c #3E2730",
"*  c #3C3439",
"=  c #4E2922",
"-  c #432724",
";  c #5A2D27",
":  c #5C352D",
">  c #442932",
",  c #4C2B36",
"<  c #5B2E3C",
"1  c #562D36",
"2  c #443B34",
"3  c #5D303E",
"4  c #45302B",
"5  c #652E24",
"6  c #742F23",
"7  c #6A3126",
"8  c #6B3129",
"9  c #77352B",
"0  c #602F3E",
"q  c #653136",
"w  c #6A3539",
"e  c #753737",
"r  c #5F4B3A",
"t  c #764134",
"y  c #6D3445",
"u  c #683843",
"i  c #703547",
"p  c #743649",
"a  c #7C394D",
"s  c #7B374B",
"d  c #3A4344",
"f  c #48484B",
"g  c #554F54",
"h  c #68434F",
"j  c #7B4D44",
"k  c #675240",
"l  c #79584A",
"z  c #604751",
"x  c #7E605B",
"c  c #7C5260",
"v  c #5E6362",
"b  c #746C6F",
"n  c #8B392C",
"m  c #813529",
"M  c #933B2D",
"N  c #983D2C",
"B  c #8C3C36",
"V  c #9B3E3C",
"C  c #953D35",
"Z  c #A13E2D",
"A  c #9E4636",
"S  c #8A4134",
"D  c #B8432F",
"F  c #B5412D",
"G  c #A8473A",
"H  c #B34532",
"J  c #BB4532",
"K  c #BB463D",
"L  c #B54539",
"P  c #CC4A35",
"I  c #C2483C",
"U  c #CA4A39",
"Y  c #C34735",
"T  c #D24B34",
"R  c #CC533D",
"E  c #D4543B",
"W  c #D5553B",
"Q  c #CD462F",
"!  c #883A46",
"~  c #9C3F4A",
"^  c #843B52",
"/  c #8D3D55",
"(  c #913E55",
")  c #A33F48",
"_  c #834A40",
"`  c #925045",
"'  c #8F4158",
"]  c #84495C",
"[  c #994053",
"{  c #91445B",
"}  c #91495F",
"|  c #AC4245",
" . c #A4424B",
".. c #AC4449",
"X. c #B44543",
"o. c #A54853",
"O. c #AC5452",
"+. c #80634C",
"@. c #98634A",
"#. c #89665F",
"$. c #BA6B5E",
"%. c #A27053",
"&. c #BA7858",
"*. c #A76356",
"=. c #94586B",
"-. c #935669",
";. c #A15C71",
":. c #826366",
">. c #836C76",
",. c #956576",
"<. c #966977",
"1. c #977C7B",
"2. c #B86A68",
"3. c #B6776C",
"4. c #B67878",
"5. c #AB7271",
"6. c #C65947",
"7. c #D55C42",
"8. c #D85D41",
"9. c #C05751",
"0. c #C56A4D",
"q. c #DC6A4B",
"w. c #C66654",
"e. c #CD755E",
"r. c #DC7453",
"t. c #D66D51",
"y. c #E17B58",
"u. c #CE726A",
"i. c #DC7A69",
"p. c #C97877",
"a. c #C87775",
"s. c #AE815F",
"d. c #B8847B",
"f. c #E4815D",
"g. c #DF8B7E",
"h. c #DC9171",
"j. c #E58962",
"k. c #E88F67",
"l. c #EA9269",
"z. c #EB996E",
"x. c #E89B72",
"c. c #E08576",
"v. c #EFA476",
"b. c #E7A779",
"n. c #F1A678",
"m. c #F3AE7E",
"M. c #F2A476",
"N. c #F3B07F",
"B. c #7D7D82",
"V. c #977582",
"C. c #998B89",
"Z. c #9A939A",
"A. c #9B979A",
"S. c #868A88",
"D. c #A8928F",
"F. c #BE8D9C",
"G. c #A69694",
"H. c #AC8783",
"J. c #BAA697",
"K. c #B0A89F",
"L. c #999EA3",
"P. c #9EA2A4",
"I. c #9BA7AA",
"U. c #9AA9AC",
"Y. c #A6A7A5",
"T. c #B1A3A1",
"R. c #ABB6B9",
"E. c #B5BABA",
"W. c #D1958F",
"Q. c #E39183",
"!. c #E69F93",
"~. c #D3A180",
"^. c #C2A996",
"/. c #F3B180",
"(. c #E6A59A",
"). c #EBAD82",
"_. c #C497A4",
"`. c #E9ADA3",
"'. c #EDB8AF",
"]. c #EEBDB4",
"[. c #F0BCB3",
"{. c #C7CBCB",
"}. c #DBC8CB",
"|. c #F2CEC7",
" X c #F4D3CC",
".X c #F8DAD5",
"XX c #F8E3DF",
"oX c #FAE5E2",
"OX c #FBECE9",
"+X c #F3E9EA",
"@X c #FCF5F5",
"#X c #FFFEFE",
"$X c #F7F1F3",
"%X c #E9EDED",
/* pixels */
"                                                                ",
"                                                                ",
"                    X X o o o                                   ",
"      I.      k l ` 0.0.0.F J A 7 =                             ",
"      U.S.r s.b.N.m.N.m.n.l.k.q.E D n -                         ",
"      U.Y.~.n.v.n.v.n.m.N.N.m.m.j.T T J 8                       ",
"      D.U.H.W W W E W r.j.k.m.m.m.j.E T Y -                     ",
"    6 $.U.P.w.7.T T T T T T y.v.m.m.j.E T n                     ",
"  2 &.h.Y.I.J.v.f.f.r.W T T T 7.z././.q.T N 5 6 =               ",
"  +.m.m.^.I.K.).N.N.m.x.r.E P T 8.z.l.8.Z 8 Y 6.n               ",
"  &.y.t.e.P.I.J.z.n.m.m./.l.E T ) 9.E P ( q X.( V               ",
"= J 7.3.6.D.U.L.w.8.z.N.b.b.r.) ( ( ) X.) V .. .P M             ",
"7 T R G.0.$.P.U.3.Q 7.h.%.t e / ( ) 6.Q T T U T T P M           ",
"7 T P 4.H.o.Z.I.G.6.~ u A Y Z e I Q T Q T Y Z T T T T n         ",
"7 U | ,.L.-.5.P.I.A.h - A ( X.Z T T Q Z 6 l C.9 J T T J - &     ",
", [ / } Z.A.6.D.E.%X_.^ w M I T T H :.< . g Y.: D E d.j m y ,   ",
"> / / ( ,.I.3.$.}.#X$XF.^ C Q T T S E.b @.L G T D S {.+.Z 1 s O ",
"  i ( / } Z.I.3.`.#X#X$X;.K T T T P S G U J 9 9 q k :.H Z i ( , ",
"  > / / s ,.R.}.i.|.#X#X}.o.T T L 6.Y n : q ! B K P L ~ < ] V., ",
"    y / , / _.#X.Xi.|.#X#X}.9.Q t T.x 6 X.I T T P I ) y 0 ,.,., ",
"    , i < / 2.oX#X Xg.@X#X#X_.6.J :.` P T T P X...( p @ 0 -.c $ ",
"      > i { ( u.oX#X!.!.#X#X+XV.X.J P P K L [ ' p ,     * V.f   ",
"        , ( / ) (.#X@XQ.!.@X#XOXp. ... .' ^ < >           d     ",
"        @ p ( / o.].#X@XQ.!.#X#XOXp.[ / ' 0 $                   ",
"        , ^ / / ( 6.].#X@XQ.!.@X#XOXp. .( ( p > &               ",
"      i ' ( / ( ^ e U [.#X@XQ.(.@X#X|.U | / ( / ' y             ",
"    < { / / ( ( ^ @ m R ].#X@X(.oX#X@X].i.) =.} =.>.+           ",
"    z <.} } / / <     = G [.#X#X#X#X#X#XOXg.1.b z d             ",
"    f c >.:., >           t g.XX#X#XXX`.oX+Xv .                 ",
"      @ % #                 ; G (.@X@XoX(.*.+                   ",
"                                : *.d.{.A.4                     ",
"                                                                "
};
