/* XPM */
static char *_c37ae845bda45a2daf90d7f44149b9d1ybbKDleS17ysy8j[] = {
/* columns rows colors chars-per-pixel */
"32 32 169 2 ",
"   c None",
".  c #1A1D1E",
"X  c #2C211E",
"o  c #1B1D20",
"O  c #241E22",
"+  c #2C2527",
"@  c #3D2520",
"#  c #32252B",
"$  c #3D272F",
"%  c #3D2730",
"&  c #3E3930",
"*  c #422620",
"=  c #5B2D24",
"-  c #572C27",
";  c #4D2B36",
":  c #492A35",
">  c #532D3A",
",  c #5B2F3D",
"<  c #562D35",
"1  c #413238",
"2  c #483139",
"3  c #4A3F33",
"4  c #5E303E",
"5  c #602F2A",
"6  c #602E25",
"7  c #683026",
"8  c #60372F",
"9  c #723327",
"0  c #74342D",
"q  c #7C362B",
"w  c #663136",
"e  c #64323C",
"r  c #693239",
"t  c #713539",
"y  c #604E3D",
"u  c #71443E",
"i  c #5B3A45",
"p  c #6B3445",
"a  c #673243",
"s  c #743649",
"d  c #7C384D",
"f  c #78374C",
"g  c #7F3F53",
"h  c #414C4C",
"j  c #555659",
"k  c #745642",
"l  c #764757",
"z  c #774958",
"x  c #7D4255",
"c  c #695756",
"v  c #7E5F5F",
"b  c #5C5D60",
"n  c #6C5861",
"m  c #636767",
"M  c #776B6A",
"N  c #796F76",
"B  c #8D3A2C",
"V  c #943C2C",
"C  c #9D3D2D",
"Z  c #843A33",
"A  c #8F3C37",
"S  c #933D3C",
"D  c #993E36",
"F  c #A63F2D",
"G  c #85493B",
"H  c #974A37",
"J  c #984634",
"K  c #97553F",
"L  c #A7402E",
"P  c #AA412F",
"I  c #B1412D",
"U  c #BB432F",
"Y  c #AE4333",
"T  c #AB4835",
"R  c #A74A39",
"E  c #AC433F",
"W  c #B44431",
"Q  c #BF4637",
"!  c #BB473E",
"~  c #B5453B",
"^  c #C9462F",
"/  c #C1442E",
"(  c #C34733",
")  c #C54833",
"_  c #CC4A35",
"`  c #C5493A",
"'  c #CA4A39",
"]  c #D04731",
"[  c #D24B34",
"{  c #D24F38",
"}  c #C9503F",
"|  c #D35037",
" . c #D4533A",
".. c #D8543A",
"X. c #803A4F",
"o. c #8B3C49",
"O. c #983E41",
"+. c #853C52",
"@. c #8E3E56",
"#. c #913E56",
"$. c #923F58",
"%. c #9F414E",
"&. c #80514C",
"*. c #96564A",
"=. c #894459",
"-. c #974052",
";. c #9A4051",
":. c #91465D",
">. c #A44144",
",. c #AE4447",
"<. c #A3424C",
"1. c #AC444A",
"2. c #B24544",
"3. c #B94641",
"4. c #B85847",
"5. c #B05D4F",
"6. c #936048",
"7. c #81645E",
"8. c #B47E5F",
"9. c #94566A",
"0. c #955A6D",
"q. c #A35B61",
"w. c #916A63",
"e. c #88706B",
"r. c #86706C",
"t. c #836370",
"y. c #956576",
"u. c #887F7D",
"i. c #9A7973",
"p. c #B47368",
"a. c #BD7B70",
"s. c #CB5443",
"d. c #D65B41",
"f. c #DA5C40",
"g. c #D96447",
"h. c #DC6A4B",
"j. c #DC6648",
"k. c #DF7352",
"l. c #DE7F5E",
"z. c #DC7856",
"x. c #E47F5B",
"c. c #C17166",
"v. c #92807D",
"b. c #B58562",
"n. c #BE8C67",
"m. c #E4845F",
"M. c #CE877A",
"N. c #E58660",
"B. c #E98C64",
"V. c #E68A63",
"C. c #E9936A",
"Z. c #EC9A6F",
"A. c #ED9D71",
"S. c #E5A477",
"D. c #EFA476",
"F. c #EEA678",
"G. c #EDA97A",
"H. c #F3AD7D",
"J. c #F3B07F",
"K. c #99818C",
"L. c #9EA7A8",
"P. c #A7AAAA",
"I. c #B8BEBF",
"U. c #DB9A8E",
"Y. c #F7B281",
"T. c #E9ABA0",
"R. c #F1BBB1",
"E. c #C7C9C9",
"W. c #F7D9D4",
/* pixels */
"                                                                ",
"                                                                ",
"                3 G H H V V V - @                               ",
"            k b.S.D.H.D.V.x.j._ I q @                           ",
"          b.S.J.H.H.H.H.Y.H.H.B...[ W 9                         ",
"        T j.j.j.g.g.j.C.C.D.H.H.C. .[ ) =                       ",
"      F  . . . .] ^ _ [ _ h.D.H.Y.C. .[ V                       ",
"    k z.A.D.D.D.x.x.g.[ [ [  .N.H.J.N.[ ) =                     ",
"    n.Y.J.J.H.J.H.H.D.N.{ [ [ [ x.Y.F.d.[ q X =                 ",
"  y G.A.Z.A.A.A.H.H.J.H.V.{ [ [ s.z.x.' 1.w B ,.A               ",
"  *.k. . .| [  .k.Z.H.H.H.B...) #.1._ ! $.e D $.>.*             ",
"  T [ [ [ [ [ [ [ d.Z.H.H.n.K >.#.#.,.1.` ~ ! 2._ C             ",
"  P [ [ _ ` ` ! ` [ s.c.8.J C t o.2.` [ [ [ [ ] [ [ J           ",
"  P _ 3.;.$.@.$.#.>.o.> - E 1.D F ] [ [ ) W &.W [ [ [ 7 o       ",
"  q <.#.#.@.#.#.#.+.4 d w S >.) _ [ W Z @ O I.7.^ [ 5.B < >     ",
"  % =.#.#.@.$.d +.#.#.#.+.r A ' [ ( e.L.& k &.R ^ p.P.B q s $   ",
"    s #.@.#.d 4 +.#.@.#.@.-._ [ [ _ *.v 4.f.I C 5 M i.U 0 d p   ",
"    ; @.@.@.> +.#.#.@.@.@.-.3.[ _ _ ] F B 0 w t ,.Y ~ S 4 9.l   ",
"      s $.s , #.@.#.#.#.@.=.%._ P r.c.8 Z O.` _ [ ) %.> x K.z   ",
"      ; @.p p $.@.@.#.#.#.#.%.1.) *.v.T [ [ [ _ ,.#.p # +.9.p   ",
"        , : @.#.#.@.@.<.3.` [ 2.1.Q I [ _ ` ,.#.d ;     n N     ",
"          + s #.@.@.<._ [ [ [ [ ` 1.,.2.<.#.f >         h       ",
"            > @.#.#.3.[ [ [ [ [ [ ' %.=.@.s :                   ",
"            , @.$.;._ [ [ [ _ [ [ [ ' %.@.@.d :                 ",
"          4 @.@.#.#.! [ [ [ [ [ [ [ [ ' %.@.@.@.p               ",
"        , @.@.@.#.d 5 ^ [ [ [ [ [ [ [ [ ) %.@.@.9.i             ",
"      O x :.#.#.$.p . 9 Y [ [ [ [ [ [ [ [ ' q.y.t.j             ",
"        N 0.y.=.p         V ( [ [ [ [ [ [ { U.c #               ",
"        1 i b 2             6 W _ [ [ [  .d.W.P.                ",
"                              * q W [ [ T.R.M.P.m               ",
"                                  * q F w.E.v.                  ",
"                                                                "
};
