/* XPM */
static char *cdcfd6ab9ca449a6ca3b4278a609721fjdLZuPUktLgZ4sKz[] = {
/* columns rows colors chars-per-pixel */
"32 32 183 2 ",
"   c None",
".  c #1E1918",
"X  c #241F1E",
"o  c #2C211E",
"O  c #2C2126",
"+  c #2F2328",
"@  c #31242A",
"#  c #3B262E",
"$  c #3D2727",
"%  c #3F343A",
"&  c #432721",
"*  c #4C2922",
"=  c #542C23",
"-  c #5D2E26",
";  c #432932",
":  c #4B2A35",
">  c #542D3A",
",  c #572E38",
"<  c #453C32",
"1  c #55323D",
"2  c #5A3E3A",
"3  c #5D303F",
"4  c #622E24",
"5  c #632F2A",
"6  c #6D3126",
"7  c #693129",
"8  c #743327",
"9  c #73332C",
"0  c #7A352D",
"q  c #70382C",
"w  c #64313D",
"e  c #673133",
"r  c #7A3634",
"t  c #4F4235",
"y  c #5B4236",
"u  c #644637",
"i  c #633241",
"p  c #6C3445",
"a  c #703547",
"s  c #753749",
"d  c #7A374B",
"f  c #7D394D",
"g  c #7A3746",
"h  c #404B4C",
"j  c #56474E",
"k  c #564F54",
"l  c #4F5350",
"z  c #585B5D",
"x  c #7C4C43",
"c  c #764857",
"v  c #765953",
"b  c #6D5760",
"n  c #676A6A",
"m  c #6E6B70",
"M  c #786F76",
"N  c gray50",
"B  c #83382C",
"V  c #8D3A2B",
"C  c #933B2B",
"Z  c #993A29",
"A  c #963D39",
"S  c #A33E2D",
"D  c #AA3F2C",
"F  c #A83F30",
"G  c #8D4538",
"H  c #9B493A",
"J  c #994736",
"K  c #A4402E",
"L  c #B8422E",
"P  c #AE4533",
"I  c #A94638",
"U  c #BC4631",
"Y  c #B3453C",
"T  c #BD473D",
"R  c #B54836",
"E  c #C3432D",
"W  c #C44731",
"Q  c #C54832",
"!  c #CD4A35",
"~  c #C1473B",
"^  c #C2483C",
"/  c #CC4C38",
"(  c #D04731",
")  c #D24B34",
"_  c #D34F39",
"`  c #CE503B",
"'  c #D4533A",
"]  c #D5583D",
"[  c #823A4F",
"{  c #8D3C45",
"}  c #973F43",
"|  c #853B51",
" . c #8E3E56",
".. c #913E56",
"X. c #834C46",
"o. c #9F414F",
"O. c #9F4042",
"+. c #8A5349",
"@. c #935547",
"#. c #88475B",
"$. c #9E4151",
"%. c #93455B",
"&. c #934C5F",
"*. c #A24146",
"=. c #AE4447",
"-. c #A5424B",
";. c #AA434A",
":. c #B34544",
">. c #BA4740",
",. c #B34848",
"<. c #83644C",
"1. c #9E6A4F",
"2. c #966A59",
"3. c #957054",
"4. c #BB6B4E",
"5. c #BE6559",
"6. c #934D62",
"7. c #8C5567",
"8. c #93586B",
"9. c #935468",
"0. c #826560",
"q. c #936172",
"w. c #976F7C",
"e. c #95727F",
"r. c #B57A6F",
"t. c #B57B71",
"y. c #CA5542",
"u. c #C65D4B",
"i. c #C85B49",
"p. c #D55C44",
"a. c #D75B44",
"s. c #DA6446",
"d. c #DD6648",
"f. c #DC6C4D",
"g. c #C16656",
"h. c #D46955",
"j. c #CE7554",
"k. c #DB715F",
"l. c #DF7654",
"z. c #E47F5B",
"x. c #E47956",
"c. c #CC7262",
"v. c #DD7462",
"b. c #8E827F",
"n. c #AF847D",
"m. c #B1827A",
"M. c #E3815C",
"N. c #C48B6A",
"B. c #D89C71",
"V. c #E98F66",
"C. c #E58761",
"Z. c #EC986D",
"A. c #E89067",
"S. c #EC9D71",
"D. c #DDA175",
"F. c #EFA376",
"G. c #E7A477",
"H. c #F1A577",
"J. c #F0A678",
"K. c #F3AD7D",
"L. c #F3B07F",
"P. c #967A86",
"I. c #808687",
"U. c #99818C",
"Y. c #9D9592",
"T. c #AA8683",
"R. c #BA8D86",
"E. c #A69998",
"W. c #A5A6A6",
"Q. c #B1A7A6",
"!. c #B3B9BA",
"~. c #E49183",
"^. c #D6A69E",
"/. c #EAA89D",
"(. c #D7ABA3",
"). c #CEB4AF",
"_. c #C5B8B6",
"`. c #E1B6AE",
"'. c #F1C4BC",
"]. c #D0D2D2",
"[. c #F5DFDB",
"{. c #F8E1DD",
"}. c #F9E5E2",
/* pixels */
"                                                                ",
"                                                                ",
"              < u J J J J C 8 &                                 ",
"          t 3.B.G.K.J.Z.x.x.' U C -                             ",
"        3.B.K.K.L.K.K.K.L.K.S.d.) Q Z                           ",
"      B p.s.s.s.s.s.M.Z.S.K.L.H.f.( ( J                         ",
"    8 ! ] ] ] _ ( ( ) ) ] V.J./.J.f.) E =                       ",
"  < 4.V.F.F.F.A.l.f.' ) ) ) f.F./.S.] ) G                       ",
"  <.L.L.L.L.L.L.L.J.Z.s.( ) ) f.H.L.z.( L O = =                 ",
"  N.F.Z.S.Z.Z.J.L.L.L.F.s.( ) ! h.M.p.=.{ - Y *.-               ",
"u j.s._ _ _ ) s.M.L.J.L.H.d.) =.$.T ! $.f 0 $.$.8               ",
"q _ ( ! ) ) ) ( ' M.J.L.B.1.I .. .-.:.:.^ Y =.^ U 4             ",
"6 ) ) ) ^ ^ ~ ~ ! ) 5.N.@.S B d -.T ! ) ) ) ) ) ) U 4           ",
"6 ) ^ -...%.....-.O.i ; C :.Y 0 ! ) ) ! U J G ! ) ) S O         ",
"= *.$. . . . ...#.i p a r } >.! ) Q J 4 . N W.K ) u.H 5 3       ",
"  s  . . ...| [ ........d 9 T ) ) G !.l y X.+.! R _.v S w a     ",
"  >  . . . .i d .. . . .#.>.) ) ) P 0.@.s.W D r 2 Y.I S w  .:   ",
"  O d .. .p i %. .q.P.6...-.! ) ! ! E P 9 e w A Y K =.e [ 8.c   ",
"    >  . .> |  . .6.P.8. ...T ! X.R.X.7 } Y / ) ) ,.a i %.U.c   ",
"    O d | >  . . . . .....o.-.T P I.+.Q ) ) / >.$.| # i %.8.i   ",
"      ; > p .. . .%.&.:.T ) Q -.~ P Q _ ! Y -.| 3 ;   # b M     ",
"          , .. . .%.T.5.) ) ( ! :.;.:.;...| i #         h       ",
"          @ d ..#.-.` y.( ` 5./ ( :... .| >                     ",
"          ; [ ....T ` t.m.i.E.n./ ) :.......i @                 ",
"        ; |  . . .*.) u.E.T.5.Q.(.a.) :... . .[ :               ",
"      ; f .. . . ., K ) u.E.(.c.`.~.( ) :... .6.c O             ",
"      1 6... ...| # * C ! h.[.'.a.a.( ) ) ,.w.7.m               ",
"      k P.8.8.d :       8 L h.{.[.a.! ) ) _ 2.%                 ",
"        > z j O           $ Z h./.f.( ( ( ' ).z                 ",
"                              4 D ( ) ) v.v.'.].z               ",
"                                * B E ) ^.}.t.n                 ",
"                                    * 6 y I.m                   "
};
